<?xml version="1.0" encoding="UTF-8" standalone="no"?><svg xmlns="http://www.w3.org/2000/svg" xmlns:xlink="http://www.w3.org/1999/xlink" clip-rule="evenodd" stroke-miterlimit="10" viewBox="0 0 1024 768"><desc>SVG generated by Keynote</desc><defs></defs><g transform="matrix(1.00, 0.00, -0.00, -1.00, 0.0, 768.0)"><path d="M 0.0 768.0 L 1024.0 768.0 L 1024.0 0.0 L 0.0 0.0 Z M 0.0 768.0 " fill="#FEFFFF"></path><text xml:space="preserve" font-family="Helvetica-Light,Helvetica" font-size="72.0" fill="#000000" transform="matrix(1.00, 0.00, -0.00, -1.00, 249.9, 357.6)">s</text><text xml:space="preserve" font-family="Helvetica-Light,Helvetica" font-size="72.0" fill="#000000" transform="matrix(1.00, 0.00, -0.00, -1.00, 285.9, 357.6)">h</text><text xml:space="preserve" font-family="Helvetica-Light,Helvetica" font-size="72.0" fill="#000000" transform="matrix(1.00, 0.00, -0.00, -1.00, 325.9, 357.6)">a</text><text xml:space="preserve" font-family="Helvetica-Light,Helvetica" font-size="72.0" fill="#000000" transform="matrix(1.00, 0.00, -0.00, -1.00, 365.9, 357.6)">r</text><text xml:space="preserve" font-family="Helvetica-Light,Helvetica" font-size="72.0" fill="#000000" transform="matrix(1.00, 0.00, -0.00, -1.00, 389.9, 357.6)">i</text><text xml:space="preserve" font-family="Helvetica-Light,Helvetica" font-size="72.0" fill="#000000" transform="matrix(1.00, 0.00, -0.00, -1.00, 405.9, 357.6)">n</text><text xml:space="preserve" font-family="Helvetica-Light,Helvetica" font-size="72.0" fill="#000000" transform="matrix(1.00, 0.00, -0.00, -1.00, 445.9, 357.6)">g</text><text xml:space="preserve" font-family="Helvetica-Light,Helvetica" font-size="72.0" fill="#000000" transform="matrix(1.00, 0.00, -0.00, -1.00, 489.9, 357.6)"> </text><text xml:space="preserve" font-family="Helvetica-Light,Helvetica" font-size="72.0" fill="#000000" transform="matrix(1.00, 0.00, -0.00, -1.00, 509.9, 357.6)">t</text><text xml:space="preserve" font-family="Helvetica-Light,Helvetica" font-size="72.0" fill="#000000" transform="matrix(1.00, 0.00, -0.00, -1.00, 530.0, 357.6)">h</text><text xml:space="preserve" font-family="Helvetica-Light,Helvetica" font-size="72.0" fill="#000000" transform="matrix(1.00, 0.00, -0.00, -1.00, 570.0, 357.6)">e</text><text xml:space="preserve" font-family="Helvetica-Light,Helvetica" font-size="72.0" fill="#000000" transform="matrix(1.00, 0.00, -0.00, -1.00, 610.0, 357.6)"> </text><text xml:space="preserve" font-family="Helvetica-Light,Helvetica" font-size="72.0" fill="#000000" transform="matrix(1.00, 0.00, -0.00, -1.00, 630.0, 357.6)">d</text><text xml:space="preserve" font-family="Helvetica-Light,Helvetica" font-size="72.0" fill="#000000" transform="matrix(1.00, 0.00, -0.00, -1.00, 674.0, 357.6)">a</text><text xml:space="preserve" font-family="Helvetica-Light,Helvetica" font-size="72.0" fill="#000000" transform="matrix(1.00, 0.00, -0.00, -1.00, 714.1, 357.6)">t</text><text xml:space="preserve" font-family="Helvetica-Light,Helvetica" font-size="72.0" fill="#000000" transform="matrix(1.00, 0.00, -0.00, -1.00, 734.1, 357.6)">a</text></g></svg>